{
	"asset":{
		"generator":"Khronos glTF Blender I/O v4.2.60",
		"version":"2.0"
	},
	"scene":0,
	"scenes":[
		{
			"name":"Scene",
			"nodes":[
				1,
				3,
				5,
				7,
				9,
				11,
				13,
				15,
				16
			]
		}
	],
	"nodes":[
		{
			"mesh":0,
			"name":"Cube.022",
			"rotation":[
				0,
				0,
				-0.7071068286895752,
				0.7071068286895752
			],
			"scale":[
				1,
				61.15946960449219,
				1
			],
			"translation":[
				0.009433746337890625,
				0.4944022595882416,
				-0.02489834651350975
			]
		},
		{
			"children":[
				0
			],
			"name":"Bar1.002",
			"scale":[
				0.0009999871253967285,
				1,
				1
			],
			"translation":[
				-0.009434297680854797,
				-0.4944022595882416,
				0.02489834651350975
			]
		},
		{
			"mesh":1,
			"name":"Cube.023",
			"scale":[
				1,
				94.34786987304688,
				1
			],
			"translation":[
				-0.4470875859260559,
				0.494384765625,
				-0.024898339062929153
			]
		},
		{
			"children":[
				2
			],
			"name":"Bar2.002",
			"scale":[
				1,
				0.0009999871253967285,
				1
			],
			"translation":[
				0.4470875859260559,
				-0.49440211057662964,
				0.024898339062929153
			]
		},
		{
			"mesh":2,
			"name":"Cube.024",
			"rotation":[
				0,
				0,
				-0.7071068286895752,
				0.7071068286895752
			],
			"scale":[
				1,
				121.90011596679688,
				1
			],
			"translation":[
				-0.44927978515625,
				-0.21320663392543793,
				-0.0248983483761549
			]
		},
		{
			"children":[
				4
			],
			"name":"Bar3.001",
			"scale":[
				0.0010000001639127731,
				1,
				1
			],
			"translation":[
				0.44926148653030396,
				0.21320661902427673,
				0.0248983483761549
			]
		},
		{
			"mesh":3,
			"name":"Cube.025",
			"scale":[
				1,
				94.34786987304688,
				1
			],
			"translation":[
				0.4659561514854431,
				-0.2132110595703125,
				-0.02489834651350975
			]
		},
		{
			"children":[
				6
			],
			"name":"Bar4.002",
			"scale":[
				1,
				0.0010000000474974513,
				1
			],
			"translation":[
				-0.4659561514854431,
				0.21320661902427673,
				0.02489834651350975
			]
		},
		{
			"mesh":4,
			"name":"Cube.026",
			"rotation":[
				0,
				0,
				-0.7071068286895752,
				0.7071068286895752
			],
			"scale":[
				1,
				61.15946960449219,
				1
			],
			"translation":[
				0.4681396484375,
				0.4944022297859192,
				-0.02489834651350975
			]
		},
		{
			"children":[
				8
			],
			"name":"Bar5.002",
			"scale":[
				0.0009999871253967285,
				1,
				1
			],
			"translation":[
				-0.4681300222873688,
				-0.4944022595882416,
				0.02489834651350975
			]
		},
		{
			"mesh":5,
			"name":"Cube.029",
			"translation":[
				0.009056242182850838,
				0.493316650390625,
				-0.0248983483761549
			]
		},
		{
			"children":[
				10
			],
			"name":"Empty",
			"scale":[
				1,
				0.0010000000474974513,
				1
			],
			"translation":[
				-0.009056242182850838,
				-0.493315190076828,
				0.0248983483761549
			]
		},
		{
			"mesh":6,
			"name":"Cube.028",
			"rotation":[
				0,
				0,
				-0.7071068286895752,
				0.7071068286895752
			],
			"scale":[
				1,
				4.7152099609375,
				1
			],
			"translation":[
				0.01123046875,
				0.5259238481521606,
				-0.02489834651350975
			]
		},
		{
			"children":[
				12
			],
			"name":"Empty.001",
			"scale":[
				0.0010000000474974513,
				1,
				1
			],
			"translation":[
				-0.011230140924453735,
				-0.5259238481521606,
				0.02489834651350975
			]
		},
		{
			"mesh":7,
			"name":"Cube.030",
			"rotation":[
				0,
				0,
				-0.7071068286895752,
				0.7071068286895752
			],
			"translation":[
				-0.5657958984375,
				0.5218693614006042,
				-0.025271741673350334
			]
		},
		{
			"children":[
				14
			],
			"name":"Empty.002",
			"scale":[
				0.0010000000474974513,
				1,
				1
			],
			"translation":[
				0.5657767057418823,
				-0.5218693614006042,
				0.025271741673350334
			]
		},
		{
			"mesh":8,
			"name":"Simsek3",
			"scale":[
				1.9600000381469727,
				1.9600000381469727,
				1.9600000381469727
			],
			"translation":[
				0.008693993091583252,
				0.5099027156829834,
				-0.016439996659755707
			]
		}
	],
	"materials":[
		{
			"doubleSided":true,
			"name":"PencereSolar.005",
			"pbrMetallicRoughness":{
				"baseColorFactor":[
					0.9822452664375305,
					0.38132646679878235,
					0.0030353753827512264,
					1
				],
				"metallicFactor":0,
				"roughnessFactor":0.5
			}
		}
	],
	"meshes":[
		{
			"name":"Cube",
			"primitives":[
				{
					"attributes":{
						"POSITION":0,
						"NORMAL":1,
						"TEXCOORD_0":2
					},
					"indices":3,
					"material":0
				}
			]
		},
		{
			"name":"Cube.001",
			"primitives":[
				{
					"attributes":{
						"POSITION":4,
						"NORMAL":5,
						"TEXCOORD_0":6
					},
					"indices":3,
					"material":0
				}
			]
		},
		{
			"name":"Cube.002",
			"primitives":[
				{
					"attributes":{
						"POSITION":7,
						"NORMAL":8,
						"TEXCOORD_0":9
					},
					"indices":3,
					"material":0
				}
			]
		},
		{
			"name":"Cube.003",
			"primitives":[
				{
					"attributes":{
						"POSITION":10,
						"NORMAL":11,
						"TEXCOORD_0":12
					},
					"indices":3,
					"material":0
				}
			]
		},
		{
			"name":"Cube.006",
			"primitives":[
				{
					"attributes":{
						"POSITION":13,
						"NORMAL":14,
						"TEXCOORD_0":15
					},
					"indices":3,
					"material":0
				}
			]
		},
		{
			"name":"Cube.029",
			"primitives":[
				{
					"attributes":{
						"POSITION":16,
						"NORMAL":17
					},
					"indices":3,
					"material":0
				}
			]
		},
		{
			"name":"Cube.028",
			"primitives":[
				{
					"attributes":{
						"POSITION":18,
						"NORMAL":19
					},
					"indices":3,
					"material":0
				}
			]
		},
		{
			"name":"Cube.030",
			"primitives":[
				{
					"attributes":{
						"POSITION":20,
						"NORMAL":21
					},
					"indices":22,
					"material":0
				}
			]
		},
		{
			"name":"Plane.027",
			"primitives":[
				{
					"attributes":{
						"POSITION":23,
						"NORMAL":24,
						"TEXCOORD_0":25
					},
					"indices":26,
					"material":0
				}
			]
		}
	],
	"accessors":[
		{
			"bufferView":0,
			"componentType":5126,
			"count":24,
			"max":[
				0.4981522858142853,
				0.00737150851637125,
				0.028648346662521362
			],
			"min":[
				0.49065229296684265,
				-0.00015425938181579113,
				0.02114834636449814
			],
			"type":"VEC3"
		},
		{
			"bufferView":1,
			"componentType":5126,
			"count":24,
			"type":"VEC3"
		},
		{
			"bufferView":2,
			"componentType":5126,
			"count":24,
			"type":"VEC2"
		},
		{
			"bufferView":3,
			"componentType":5123,
			"count":36,
			"type":"SCALAR"
		},
		{
			"bufferView":4,
			"componentType":5126,
			"count":24,
			"max":[
				0.4508375823497772,
				0.0022995397448539734,
				0.028648339211940765
			],
			"min":[
				0.4433375895023346,
				-0.005240205675363541,
				0.02114833891391754
			],
			"type":"VEC3"
		},
		{
			"bufferView":5,
			"componentType":5126,
			"count":24,
			"type":"VEC3"
		},
		{
			"bufferView":6,
			"componentType":5126,
			"count":24,
			"type":"VEC2"
		},
		{
			"bufferView":7,
			"componentType":5126,
			"count":24,
			"max":[
				-0.2094566375017166,
				0.0036983739119023085,
				0.02864834852516651
			],
			"min":[
				-0.21695663034915924,
				-0.003827393753454089,
				0.021148348227143288
			],
			"type":"VEC3"
		},
		{
			"bufferView":8,
			"componentType":5126,
			"count":24,
			"type":"VEC3"
		},
		{
			"bufferView":9,
			"componentType":5126,
			"count":24,
			"type":"VEC2"
		},
		{
			"bufferView":10,
			"componentType":5126,
			"count":24,
			"max":[
				-0.4622061550617218,
				0.002299539279192686,
				0.028648346662521362
			],
			"min":[
				-0.46970614790916443,
				-0.00527995266020298,
				0.02114834636449814
			],
			"type":"VEC3"
		},
		{
			"bufferView":11,
			"componentType":5126,
			"count":24,
			"type":"VEC3"
		},
		{
			"bufferView":12,
			"componentType":5126,
			"count":24,
			"type":"VEC2"
		},
		{
			"bufferView":13,
			"componentType":5126,
			"count":24,
			"max":[
				0.4981521964073181,
				-0.0001542570535093546,
				0.028648346662521362
			],
			"min":[
				0.4906522035598755,
				-0.007680024020373821,
				0.02114834636449814
			],
			"type":"VEC3"
		},
		{
			"bufferView":14,
			"componentType":5126,
			"count":24,
			"type":"VEC3"
		},
		{
			"bufferView":15,
			"componentType":5126,
			"count":24,
			"type":"VEC2"
		},
		{
			"bufferView":16,
			"componentType":5126,
			"count":24,
			"max":[
				-0.005306245759129524,
				-0.4936194121837616,
				0.028648346662521362
			],
			"min":[
				-0.012806238606572151,
				-0.525619387626648,
				0.02114834636449814
			],
			"type":"VEC3"
		},
		{
			"bufferView":17,
			"componentType":5126,
			"count":24,
			"type":"VEC3"
		},
		{
			"bufferView":18,
			"componentType":5126,
			"count":24,
			"max":[
				0.525619387626648,
				0.12324975430965424,
				0.02864835038781166
			],
			"min":[
				0.5181193351745605,
				-0.0023816414177417755,
				0.021148350089788437
			],
			"type":"VEC3"
		},
		{
			"bufferView":19,
			"componentType":5126,
			"count":24,
			"type":"VEC3"
		},
		{
			"bufferView":20,
			"componentType":5126,
			"count":48,
			"max":[
				0.5372412204742432,
				0.5864517092704773,
				0.028648346662521362
			],
			"min":[
				0.5064976811408997,
				0.5657766461372375,
				0.02114834636449814
			],
			"type":"VEC3"
		},
		{
			"bufferView":21,
			"componentType":5126,
			"count":48,
			"type":"VEC3"
		},
		{
			"bufferView":22,
			"componentType":5123,
			"count":72,
			"type":"SCALAR"
		},
		{
			"bufferView":23,
			"componentType":5126,
			"count":54,
			"max":[
				0.002272261306643486,
				-0.5311485528945923,
				0.02473369613289833
			],
			"min":[
				-0.019792990759015083,
				-0.570904016494751,
				0.017124999314546585
			],
			"type":"VEC3"
		},
		{
			"bufferView":24,
			"componentType":5126,
			"count":54,
			"type":"VEC3"
		},
		{
			"bufferView":25,
			"componentType":5126,
			"count":54,
			"type":"VEC2"
		},
		{
			"bufferView":26,
			"componentType":5123,
			"count":96,
			"type":"SCALAR"
		}
	],
	"bufferViews":[
		{
			"buffer":0,
			"byteLength":288,
			"byteOffset":0,
			"target":34962
		},
		{
			"buffer":0,
			"byteLength":288,
			"byteOffset":288,
			"target":34962
		},
		{
			"buffer":0,
			"byteLength":192,
			"byteOffset":576,
			"target":34962
		},
		{
			"buffer":0,
			"byteLength":72,
			"byteOffset":768,
			"target":34963
		},
		{
			"buffer":0,
			"byteLength":288,
			"byteOffset":840,
			"target":34962
		},
		{
			"buffer":0,
			"byteLength":288,
			"byteOffset":1128,
			"target":34962
		},
		{
			"buffer":0,
			"byteLength":192,
			"byteOffset":1416,
			"target":34962
		},
		{
			"buffer":0,
			"byteLength":288,
			"byteOffset":1608,
			"target":34962
		},
		{
			"buffer":0,
			"byteLength":288,
			"byteOffset":1896,
			"target":34962
		},
		{
			"buffer":0,
			"byteLength":192,
			"byteOffset":2184,
			"target":34962
		},
		{
			"buffer":0,
			"byteLength":288,
			"byteOffset":2376,
			"target":34962
		},
		{
			"buffer":0,
			"byteLength":288,
			"byteOffset":2664,
			"target":34962
		},
		{
			"buffer":0,
			"byteLength":192,
			"byteOffset":2952,
			"target":34962
		},
		{
			"buffer":0,
			"byteLength":288,
			"byteOffset":3144,
			"target":34962
		},
		{
			"buffer":0,
			"byteLength":288,
			"byteOffset":3432,
			"target":34962
		},
		{
			"buffer":0,
			"byteLength":192,
			"byteOffset":3720,
			"target":34962
		},
		{
			"buffer":0,
			"byteLength":288,
			"byteOffset":3912,
			"target":34962
		},
		{
			"buffer":0,
			"byteLength":288,
			"byteOffset":4200,
			"target":34962
		},
		{
			"buffer":0,
			"byteLength":288,
			"byteOffset":4488,
			"target":34962
		},
		{
			"buffer":0,
			"byteLength":288,
			"byteOffset":4776,
			"target":34962
		},
		{
			"buffer":0,
			"byteLength":576,
			"byteOffset":5064,
			"target":34962
		},
		{
			"buffer":0,
			"byteLength":576,
			"byteOffset":5640,
			"target":34962
		},
		{
			"buffer":0,
			"byteLength":144,
			"byteOffset":6216,
			"target":34963
		},
		{
			"buffer":0,
			"byteLength":648,
			"byteOffset":6360,
			"target":34962
		},
		{
			"buffer":0,
			"byteLength":648,
			"byteOffset":7008,
			"target":34962
		},
		{
			"buffer":0,
			"byteLength":432,
			"byteOffset":7656,
			"target":34962
		},
		{
			"buffer":0,
			"byteLength":192,
			"byteOffset":8088,
			"target":34963
		}
	],
	"buffers":[
		{
			"byteLength":8280,
			"uri":"Sahne3cerceve.bin"
		}
	]
}
