{
	"asset":{
		"generator":"Khronos glTF Blender I/O v4.2.60",
		"version":"2.0"
	},
	"scene":0,
	"scenes":[
		{
			"name":"Scene",
			"nodes":[
				0,
				1,
				2
			]
		}
	],
	"nodes":[
		{
			"mesh":0,
			"name":"Text.017",
			"rotation":[
				0.7071068286895752,
				0,
				0,
				0.7071068286895752
			],
			"scale":[
				0.05252376198768616,
				0.05252376198768616,
				0.05252485349774361
			]
		},
		{
			"mesh":1,
			"name":"Text.016",
			"rotation":[
				0.7071068286895752,
				0,
				0,
				0.7071068286895752
			],
			"scale":[
				0.05252374708652496,
				0.05252374708652496,
				0.05252484977245331
			]
		},
		{
			"mesh":2,
			"name":"Text.014",
			"rotation":[
				0.7071068286895752,
				0,
				0,
				0.7071068286895752
			],
			"scale":[
				0.05252376198768616,
				0.05252376198768616,
				0.05252485349774361
			]
		}
	],
	"materials":[
		{
			"doubleSided":true,
			"name":"Material.005",
			"pbrMetallicRoughness":{
				"baseColorFactor":[
					0,
					0,
					0,
					1
				],
				"metallicFactor":0,
				"roughnessFactor":0.5
			}
		},
		{
			"doubleSided":true,
			"name":"Mat_Roof_Cap.004",
			"pbrMetallicRoughness":{
				"baseColorFactor":[
					0.9822452664375305,
					0.38132646679878235,
					0.0030353753827512264,
					1
				],
				"metallicFactor":0,
				"roughnessFactor":0.699999988079071
			}
		}
	],
	"meshes":[
		{
			"name":"Text.019",
			"primitives":[
				{
					"attributes":{
						"POSITION":0,
						"NORMAL":1,
						"TEXCOORD_0":2
					},
					"indices":3,
					"material":0
				}
			]
		},
		{
			"name":"Text.001",
			"primitives":[
				{
					"attributes":{
						"POSITION":4,
						"NORMAL":5,
						"TEXCOORD_0":6
					},
					"indices":7,
					"material":1
				}
			]
		},
		{
			"name":"Text.007",
			"primitives":[
				{
					"attributes":{
						"POSITION":8,
						"NORMAL":9,
						"TEXCOORD_0":10
					},
					"indices":11,
					"material":0
				}
			]
		}
	],
	"accessors":[
		{
			"bufferView":0,
			"componentType":5126,
			"count":14535,
			"max":[
				0.16705505549907684,
				-0.039688438177108765,
				-10.075626373291016
			],
			"min":[
				-8.628597259521484,
				-0.1396884322166443,
				-10.875625610351562
			],
			"type":"VEC3"
		},
		{
			"bufferView":1,
			"componentType":5126,
			"count":14535,
			"type":"VEC3"
		},
		{
			"bufferView":2,
			"componentType":5126,
			"count":14535,
			"type":"VEC2"
		},
		{
			"bufferView":3,
			"componentType":5123,
			"count":42984,
			"type":"SCALAR"
		},
		{
			"bufferView":4,
			"componentType":5126,
			"count":11011,
			"max":[
				-0.18446990847587585,
				-0.02829653024673462,
				-5.897100925445557
			],
			"min":[
				-4.90186071395874,
				-0.06829652190208435,
				-6.687614917755127
			],
			"type":"VEC3"
		},
		{
			"bufferView":5,
			"componentType":5126,
			"count":11011,
			"type":"VEC3"
		},
		{
			"bufferView":6,
			"componentType":5126,
			"count":11011,
			"type":"VEC2"
		},
		{
			"bufferView":7,
			"componentType":5123,
			"count":32784,
			"type":"SCALAR"
		},
		{
			"bufferView":8,
			"componentType":5126,
			"count":8366,
			"max":[
				-5.158644676208496,
				-0.028296515345573425,
				-5.897103309631348
			],
			"min":[
				-8.628605842590332,
				-0.06829652190208435,
				-6.687617301940918
			],
			"type":"VEC3"
		},
		{
			"bufferView":9,
			"componentType":5126,
			"count":8366,
			"type":"VEC3"
		},
		{
			"bufferView":10,
			"componentType":5126,
			"count":8366,
			"type":"VEC2"
		},
		{
			"bufferView":11,
			"componentType":5123,
			"count":24924,
			"type":"SCALAR"
		}
	],
	"bufferViews":[
		{
			"buffer":0,
			"byteLength":174420,
			"byteOffset":0,
			"target":34962
		},
		{
			"buffer":0,
			"byteLength":174420,
			"byteOffset":174420,
			"target":34962
		},
		{
			"buffer":0,
			"byteLength":116280,
			"byteOffset":348840,
			"target":34962
		},
		{
			"buffer":0,
			"byteLength":85968,
			"byteOffset":465120,
			"target":34963
		},
		{
			"buffer":0,
			"byteLength":132132,
			"byteOffset":551088,
			"target":34962
		},
		{
			"buffer":0,
			"byteLength":132132,
			"byteOffset":683220,
			"target":34962
		},
		{
			"buffer":0,
			"byteLength":88088,
			"byteOffset":815352,
			"target":34962
		},
		{
			"buffer":0,
			"byteLength":65568,
			"byteOffset":903440,
			"target":34963
		},
		{
			"buffer":0,
			"byteLength":100392,
			"byteOffset":969008,
			"target":34962
		},
		{
			"buffer":0,
			"byteLength":100392,
			"byteOffset":1069400,
			"target":34962
		},
		{
			"buffer":0,
			"byteLength":66928,
			"byteOffset":1169792,
			"target":34962
		},
		{
			"buffer":0,
			"byteLength":49848,
			"byteOffset":1236720,
			"target":34963
		}
	],
	"buffers":[
		{
			"byteLength":1286568,
			"uri":"Sahne3Mevcut.bin"
		}
	]
}
