{
	"asset":{
		"generator":"Khronos glTF Blender I/O v4.2.60",
		"version":"2.0"
	},
	"scene":0,
	"scenes":[
		{
			"name":"Scene",
			"nodes":[
				0,
				2,
				4,
				6,
				8,
				10,
				12,
				14,
				16,
				18,
				20,
				22
			]
		}
	],
	"nodes":[
		{
			"mesh":0,
			"name":"Simsek1.3Kayan.002",
			"scale":[
				1.840000033378601,
				1.840000033378601,
				1.840000033378601
			]
		},
		{
			"mesh":1,
			"name":"Cube",
			"rotation":[
				0,
				0,
				-0.7071068286895752,
				0.7071068286895752
			],
			"scale":[
				1,
				45.94200134277344,
				1
			],
			"translation":[
				0.12357330322265625,
				0.49440228939056396,
				-0.02489835023880005
			]
		},
		{
			"children":[
				1
			],
			"name":"Bar1.001",
			"scale":[
				0.0010000001639127731,
				1,
				1
			],
			"translation":[
				-0.12356480956077576,
				-0.4944022595882416,
				0.0248983483761549
			]
		},
		{
			"mesh":2,
			"name":"Cube.012",
			"scale":[
				1,
				13.188400268554688,
				1
			],
			"translation":[
				-0.2188265174627304,
				0.494415283203125,
				-0.0248983483761549
			]
		},
		{
			"children":[
				3
			],
			"name":"Bar2.001",
			"scale":[
				1,
				0.0010000000474974513,
				1
			],
			"translation":[
				0.2188265174627304,
				-0.4944021701812744,
				0.0248983483761549
			]
		},
		{
			"mesh":3,
			"name":"Cube.013",
			"rotation":[
				0,
				0,
				-0.7071068286895752,
				0.7071068286895752
			],
			"scale":[
				1,
				10.675830841064453,
				1
			],
			"translation":[
				-0.2166595458984375,
				0.3954890966415405,
				-0.0248983483761549
			]
		},
		{
			"children":[
				5
			],
			"name":"Bar3",
			"scale":[
				0.0009999871253967285,
				1,
				1
			],
			"translation":[
				0.21665263175964355,
				-0.3954890966415405,
				0.0248983483761549
			]
		},
		{
			"mesh":4,
			"name":"Cube.014",
			"scale":[
				1,
				81.15946960449219,
				1
			],
			"translation":[
				-0.29491350054740906,
				0.393280029296875,
				-0.0248983483761549
			]
		},
		{
			"children":[
				7
			],
			"name":"Bar4.001",
			"scale":[
				1,
				0.0009999871253967285,
				1
			],
			"translation":[
				0.29491350054740906,
				-0.3933151364326477,
				0.0248983483761549
			]
		},
		{
			"mesh":5,
			"name":"Cube.015",
			"rotation":[
				0,
				0,
				-0.7071068286895752,
				0.7071068286895752
			],
			"scale":[
				1,
				97.7345199584961,
				1
			],
			"translation":[
				-0.29705810546875,
				-0.21320663392543793,
				-0.0248983483761549
			]
		},
		{
			"children":[
				9
			],
			"name":"Bar5.001",
			"scale":[
				0.0009999871253967285,
				1,
				1
			],
			"translation":[
				0.2970873713493347,
				0.21320663392543793,
				0.0248983483761549
			]
		},
		{
			"mesh":6,
			"name":"Cube.016",
			"scale":[
				1,
				94.34786987304688,
				1
			],
			"translation":[
				0.4659561514854431,
				-0.2132110595703125,
				-0.0248983483761549
			]
		},
		{
			"children":[
				11
			],
			"name":"Bar6.001",
			"scale":[
				1,
				0.0009999871253967285,
				1
			],
			"translation":[
				-0.4659561514854431,
				0.2132067084312439,
				0.0248983483761549
			]
		},
		{
			"mesh":7,
			"name":"Cube.017",
			"rotation":[
				0,
				0,
				-0.7071068286895752,
				0.7071068286895752
			],
			"scale":[
				1,
				45.94200134277344,
				1
			],
			"translation":[
				0.4681396484375,
				0.4944022595882416,
				-0.02489835023880005
			]
		},
		{
			"children":[
				13
			],
			"name":"Bar7.001",
			"scale":[
				0.0009999871253967285,
				1,
				1
			],
			"translation":[
				-0.46813005208969116,
				-0.4944022595882416,
				0.0248983483761549
			]
		},
		{
			"mesh":8,
			"name":"Cube.020",
			"translation":[
				0.12318675220012665,
				0.493316650390625,
				-0.0248983483761549
			]
		},
		{
			"children":[
				15
			],
			"name":"Bar8.001",
			"scale":[
				1,
				0.0009999871253967285,
				1
			],
			"translation":[
				-0.12318675220012665,
				-0.49331510066986084,
				0.0248983483761549
			]
		},
		{
			"mesh":9,
			"name":"Cube.019",
			"rotation":[
				0,
				0,
				-0.7071068286895752,
				0.7071068286895752
			],
			"scale":[
				1,
				3.8044300079345703,
				1
			],
			"translation":[
				0.1253662109375,
				0.5259238481521606,
				-0.0248983483761549
			]
		},
		{
			"children":[
				17
			],
			"name":"Bar9.001",
			"scale":[
				0.0009999871253967285,
				1,
				1
			],
			"translation":[
				-0.1253606379032135,
				-0.5259238481521606,
				0.0248983483761549
			]
		},
		{
			"mesh":10,
			"name":"Cube.018",
			"translation":[
				-0.583215057849884,
				0.02545166015625,
				-0.00037339329719543457
			]
		},
		{
			"children":[
				19
			],
			"name":"Bar10.001",
			"scale":[
				1,
				0.0009999871253967285,
				1
			],
			"translation":[
				0.3333350121974945,
				-0.5259237885475159,
				0.025271743535995483
			]
		},
		{
			"mesh":11,
			"name":"Cube.021",
			"translation":[
				-0.3333352506160736,
				0.503570556640625,
				-0.02527174912393093
			]
		},
		{
			"children":[
				21
			],
			"name":"Bar11.001",
			"scale":[
				1,
				0.0009999871253967285,
				1
			],
			"translation":[
				0.3333352506160736,
				-0.5035259127616882,
				0.02527174912393093
			]
		}
	],
	"materials":[
		{
			"doubleSided":true,
			"name":"PencereSolar.005",
			"pbrMetallicRoughness":{
				"baseColorFactor":[
					0.9822452664375305,
					0.38132646679878235,
					0.0030353753827512264,
					1
				],
				"metallicFactor":0,
				"roughnessFactor":0.5
			}
		},
		{
			"doubleSided":true,
			"name":"Mat_Roof_Cap",
			"pbrMetallicRoughness":{
				"baseColorFactor":[
					0.9822452664375305,
					0.38132646679878235,
					0.0030353753827512264,
					1
				],
				"metallicFactor":0,
				"roughnessFactor":0.699999988079071
			}
		}
	],
	"meshes":[
		{
			"name":"Plane.017",
			"primitives":[
				{
					"attributes":{
						"POSITION":0,
						"NORMAL":1,
						"TEXCOORD_0":2
					},
					"indices":3,
					"material":0
				}
			]
		},
		{
			"name":"Cube.017",
			"primitives":[
				{
					"attributes":{
						"POSITION":4,
						"NORMAL":5
					},
					"indices":6,
					"material":1
				}
			]
		},
		{
			"name":"Cube.018",
			"primitives":[
				{
					"attributes":{
						"POSITION":7,
						"NORMAL":8
					},
					"indices":6,
					"material":1
				}
			]
		},
		{
			"name":"Cube.019",
			"primitives":[
				{
					"attributes":{
						"POSITION":9,
						"NORMAL":10
					},
					"indices":6,
					"material":1
				}
			]
		},
		{
			"name":"Cube.020",
			"primitives":[
				{
					"attributes":{
						"POSITION":11,
						"NORMAL":12
					},
					"indices":6,
					"material":1
				}
			]
		},
		{
			"name":"Cube.021",
			"primitives":[
				{
					"attributes":{
						"POSITION":13,
						"NORMAL":14
					},
					"indices":6,
					"material":1
				}
			]
		},
		{
			"name":"Cube.022",
			"primitives":[
				{
					"attributes":{
						"POSITION":15,
						"NORMAL":16
					},
					"indices":6,
					"material":1
				}
			]
		},
		{
			"name":"Cube.023",
			"primitives":[
				{
					"attributes":{
						"POSITION":17,
						"NORMAL":18
					},
					"indices":6,
					"material":1
				}
			]
		},
		{
			"name":"Cube.026",
			"primitives":[
				{
					"attributes":{
						"POSITION":19,
						"NORMAL":20
					},
					"indices":6,
					"material":0
				}
			]
		},
		{
			"name":"Cube.025",
			"primitives":[
				{
					"attributes":{
						"POSITION":21,
						"NORMAL":22
					},
					"indices":6,
					"material":0
				}
			]
		},
		{
			"name":"Cube.024",
			"primitives":[
				{
					"attributes":{
						"POSITION":23,
						"NORMAL":24
					},
					"indices":6,
					"material":0
				}
			]
		},
		{
			"name":"Cube.027",
			"primitives":[
				{
					"attributes":{
						"POSITION":25,
						"NORMAL":26
					},
					"indices":27,
					"material":0
				}
			]
		}
	],
	"accessors":[
		{
			"bufferView":0,
			"componentType":5126,
			"count":54,
			"max":[
				-0.05609878897666931,
				-0.2886677384376526,
				0.016915760934352875
			],
			"min":[
				-0.07816404104232788,
				-0.3284232020378113,
				0.009307065047323704
			],
			"type":"VEC3"
		},
		{
			"bufferView":1,
			"componentType":5126,
			"count":54,
			"type":"VEC3"
		},
		{
			"bufferView":2,
			"componentType":5126,
			"count":54,
			"type":"VEC2"
		},
		{
			"bufferView":3,
			"componentType":5123,
			"count":96,
			"type":"SCALAR"
		},
		{
			"bufferView":4,
			"componentType":5126,
			"count":24,
			"max":[
				0.4981522560119629,
				0.004844726994633675,
				0.02864835038781166
			],
			"min":[
				0.49065226316452026,
				-0.002689581597223878,
				0.021148350089788437
			],
			"type":"VEC3"
		},
		{
			"bufferView":5,
			"componentType":5126,
			"count":24,
			"type":"VEC3"
		},
		{
			"bufferView":6,
			"componentType":5123,
			"count":36,
			"type":"SCALAR"
		},
		{
			"bufferView":7,
			"componentType":5126,
			"count":24,
			"max":[
				0.22257651388645172,
				-0.029987651854753494,
				0.02864834852516651
			],
			"min":[
				0.2150765210390091,
				-0.03748765215277672,
				0.021148348227143288
			],
			"type":"VEC3"
		},
		{
			"bufferView":8,
			"componentType":5126,
			"count":24,
			"type":"VEC3"
		},
		{
			"bufferView":9,
			"componentType":5126,
			"count":24,
			"max":[
				0.3992391526699066,
				0.02797565795481205,
				0.02864834852516651
			],
			"min":[
				0.391739159822464,
				0.020146111026406288,
				0.021148348227143288
			],
			"type":"VEC3"
		},
		{
			"bufferView":10,
			"componentType":5126,
			"count":24,
			"type":"VEC3"
		},
		{
			"bufferView":11,
			"componentType":5126,
			"count":24,
			"max":[
				0.29866349697113037,
				0.0026537952944636345,
				0.02864834852516651
			],
			"min":[
				0.29116344451904297,
				-0.004846205003559589,
				0.021148348227143288
			],
			"type":"VEC3"
		},
		{
			"bufferView":12,
			"componentType":5126,
			"count":24,
			"type":"VEC3"
		},
		{
			"bufferView":13,
			"componentType":5126,
			"count":24,
			"max":[
				-0.20945662260055542,
				0.003055865177884698,
				0.02864834852516651
			],
			"min":[
				-0.21695667505264282,
				-0.004805939272046089,
				0.021148348227143288
			],
			"type":"VEC3"
		},
		{
			"bufferView":14,
			"componentType":5126,
			"count":24,
			"type":"VEC3"
		},
		{
			"bufferView":15,
			"componentType":5126,
			"count":24,
			"max":[
				-0.4622061252593994,
				0.0022597946226596832,
				0.02864834852516651
			],
			"min":[
				-0.46970611810684204,
				-0.005240205209702253,
				0.021148348227143288
			],
			"type":"VEC3"
		},
		{
			"bufferView":16,
			"componentType":5126,
			"count":24,
			"type":"VEC3"
		},
		{
			"bufferView":17,
			"componentType":5126,
			"count":24,
			"max":[
				0.4981522262096405,
				-0.002689584158360958,
				0.02864835038781166
			],
			"min":[
				0.4906522333621979,
				-0.010223892517387867,
				0.021148350089788437
			],
			"type":"VEC3"
		},
		{
			"bufferView":18,
			"componentType":5126,
			"count":24,
			"type":"VEC3"
		},
		{
			"bufferView":19,
			"componentType":5126,
			"count":24,
			"max":[
				-0.11943674087524414,
				-0.49361947178840637,
				0.028648342937231064
			],
			"min":[
				-0.12693673372268677,
				-0.5256194472312927,
				0.02114834263920784
			],
			"type":"VEC3"
		},
		{
			"bufferView":20,
			"componentType":5126,
			"count":24,
			"type":"VEC3"
		},
		{
			"bufferView":21,
			"componentType":5126,
			"count":24,
			"max":[
				0.525619387626648,
				0.08860327303409576,
				0.02864834852516651
			],
			"min":[
				0.5181193351745605,
				-0.03336551785469055,
				0.021148348227143288
			],
			"type":"VEC3"
		},
		{
			"bufferView":22,
			"componentType":5126,
			"count":24,
			"type":"VEC3"
		},
		{
			"bufferView":23,
			"componentType":5126,
			"count":24,
			"max":[
				0.586965024471283,
				0.012717247009277344,
				0.0041233934462070465
			],
			"min":[
				0.5794650316238403,
				-0.02545762062072754,
				-0.0033766068518161774
			],
			"type":"VEC3"
		},
		{
			"bufferView":24,
			"componentType":5126,
			"count":24,
			"type":"VEC3"
		},
		{
			"bufferView":25,
			"componentType":5126,
			"count":48,
			"max":[
				0.34870681166648865,
				-0.48244553804397583,
				0.029021739959716797
			],
			"min":[
				0.31796327233314514,
				-0.5031206607818604,
				0.021521739661693573
			],
			"type":"VEC3"
		},
		{
			"bufferView":26,
			"componentType":5126,
			"count":48,
			"type":"VEC3"
		},
		{
			"bufferView":27,
			"componentType":5123,
			"count":72,
			"type":"SCALAR"
		}
	],
	"bufferViews":[
		{
			"buffer":0,
			"byteLength":648,
			"byteOffset":0,
			"target":34962
		},
		{
			"buffer":0,
			"byteLength":648,
			"byteOffset":648,
			"target":34962
		},
		{
			"buffer":0,
			"byteLength":432,
			"byteOffset":1296,
			"target":34962
		},
		{
			"buffer":0,
			"byteLength":192,
			"byteOffset":1728,
			"target":34963
		},
		{
			"buffer":0,
			"byteLength":288,
			"byteOffset":1920,
			"target":34962
		},
		{
			"buffer":0,
			"byteLength":288,
			"byteOffset":2208,
			"target":34962
		},
		{
			"buffer":0,
			"byteLength":72,
			"byteOffset":2496,
			"target":34963
		},
		{
			"buffer":0,
			"byteLength":288,
			"byteOffset":2568,
			"target":34962
		},
		{
			"buffer":0,
			"byteLength":288,
			"byteOffset":2856,
			"target":34962
		},
		{
			"buffer":0,
			"byteLength":288,
			"byteOffset":3144,
			"target":34962
		},
		{
			"buffer":0,
			"byteLength":288,
			"byteOffset":3432,
			"target":34962
		},
		{
			"buffer":0,
			"byteLength":288,
			"byteOffset":3720,
			"target":34962
		},
		{
			"buffer":0,
			"byteLength":288,
			"byteOffset":4008,
			"target":34962
		},
		{
			"buffer":0,
			"byteLength":288,
			"byteOffset":4296,
			"target":34962
		},
		{
			"buffer":0,
			"byteLength":288,
			"byteOffset":4584,
			"target":34962
		},
		{
			"buffer":0,
			"byteLength":288,
			"byteOffset":4872,
			"target":34962
		},
		{
			"buffer":0,
			"byteLength":288,
			"byteOffset":5160,
			"target":34962
		},
		{
			"buffer":0,
			"byteLength":288,
			"byteOffset":5448,
			"target":34962
		},
		{
			"buffer":0,
			"byteLength":288,
			"byteOffset":5736,
			"target":34962
		},
		{
			"buffer":0,
			"byteLength":288,
			"byteOffset":6024,
			"target":34962
		},
		{
			"buffer":0,
			"byteLength":288,
			"byteOffset":6312,
			"target":34962
		},
		{
			"buffer":0,
			"byteLength":288,
			"byteOffset":6600,
			"target":34962
		},
		{
			"buffer":0,
			"byteLength":288,
			"byteOffset":6888,
			"target":34962
		},
		{
			"buffer":0,
			"byteLength":288,
			"byteOffset":7176,
			"target":34962
		},
		{
			"buffer":0,
			"byteLength":288,
			"byteOffset":7464,
			"target":34962
		},
		{
			"buffer":0,
			"byteLength":576,
			"byteOffset":7752,
			"target":34962
		},
		{
			"buffer":0,
			"byteLength":576,
			"byteOffset":8328,
			"target":34962
		},
		{
			"buffer":0,
			"byteLength":144,
			"byteOffset":8904,
			"target":34963
		}
	],
	"buffers":[
		{
			"byteLength":9048,
			"uri":"Sahne2Cerceve.bin"
		}
	]
}
