{
	"asset":{
		"generator":"Khronos glTF Blender I/O v4.2.60",
		"version":"2.0"
	},
	"scene":0,
	"scenes":[
		{
			"name":"Scene",
			"nodes":[
				0,
				1,
				2,
				3,
				4,
				5,
				6,
				7,
				8,
				9,
				10,
				11,
				12,
				13,
				14
			]
		}
	],
	"nodes":[
		{
			"mesh":0,
			"name":"Pencere1"
		},
		{
			"mesh":1,
			"name":"Pencere14.004"
		},
		{
			"mesh":2,
			"name":"Pencere13.004"
		},
		{
			"mesh":3,
			"name":"Pencere10.004"
		},
		{
			"mesh":4,
			"name":"Pencere9.004"
		},
		{
			"mesh":5,
			"name":"Pencere6.004"
		},
		{
			"mesh":6,
			"name":"Pencere5.004"
		},
		{
			"mesh":7,
			"name":"Pencere2.004"
		},
		{
			"mesh":8,
			"name":"Pencere15.004"
		},
		{
			"mesh":9,
			"name":"Pencere12.004"
		},
		{
			"mesh":10,
			"name":"Pencere11.004"
		},
		{
			"mesh":11,
			"name":"Pencere8.004"
		},
		{
			"mesh":12,
			"name":"Pencere7.004"
		},
		{
			"mesh":13,
			"name":"Pencere4.004"
		},
		{
			"mesh":14,
			"name":"Pencere3.004"
		}
	],
	"materials":[
		{
			"doubleSided":true,
			"name":"PencereSolar",
			"pbrMetallicRoughness":{
				"baseColorFactor":[
					0.9822452664375305,
					0.38132646679878235,
					0.0030353753827512264,
					1
				],
				"metallicFactor":0,
				"roughnessFactor":0.5
			}
		}
	],
	"meshes":[
		{
			"name":"Building_069_Mesh.013",
			"primitives":[
				{
					"attributes":{
						"POSITION":0,
						"NORMAL":1
					},
					"indices":2,
					"material":0
				}
			]
		},
		{
			"name":"Building_070_Mesh.013",
			"primitives":[
				{
					"attributes":{
						"POSITION":3,
						"NORMAL":4
					},
					"indices":5,
					"material":0
				}
			]
		},
		{
			"name":"Building_071_Mesh.013",
			"primitives":[
				{
					"attributes":{
						"POSITION":6,
						"NORMAL":7
					},
					"indices":8,
					"material":0
				}
			]
		},
		{
			"name":"Building_072_Mesh.013",
			"primitives":[
				{
					"attributes":{
						"POSITION":9,
						"NORMAL":10
					},
					"indices":11,
					"material":0
				}
			]
		},
		{
			"name":"Building_073_Mesh.013",
			"primitives":[
				{
					"attributes":{
						"POSITION":12,
						"NORMAL":13
					},
					"indices":14,
					"material":0
				}
			]
		},
		{
			"name":"Building_074_Mesh.013",
			"primitives":[
				{
					"attributes":{
						"POSITION":15,
						"NORMAL":16
					},
					"indices":17,
					"material":0
				}
			]
		},
		{
			"name":"Building_075_Mesh.013",
			"primitives":[
				{
					"attributes":{
						"POSITION":18,
						"NORMAL":19
					},
					"indices":20,
					"material":0
				}
			]
		},
		{
			"name":"Building_076_Mesh.013",
			"primitives":[
				{
					"attributes":{
						"POSITION":21,
						"NORMAL":22
					},
					"indices":23,
					"material":0
				}
			]
		},
		{
			"name":"Building_077_Mesh.013",
			"primitives":[
				{
					"attributes":{
						"POSITION":24,
						"NORMAL":25
					},
					"indices":26,
					"material":0
				}
			]
		},
		{
			"name":"Building_078_Mesh.013",
			"primitives":[
				{
					"attributes":{
						"POSITION":27,
						"NORMAL":28
					},
					"indices":29,
					"material":0
				}
			]
		},
		{
			"name":"Building_079_Mesh.013",
			"primitives":[
				{
					"attributes":{
						"POSITION":30,
						"NORMAL":31
					},
					"indices":2,
					"material":0
				}
			]
		},
		{
			"name":"Building_080_Mesh.013",
			"primitives":[
				{
					"attributes":{
						"POSITION":32,
						"NORMAL":33
					},
					"indices":34,
					"material":0
				}
			]
		},
		{
			"name":"Building_081_Mesh.013",
			"primitives":[
				{
					"attributes":{
						"POSITION":35,
						"NORMAL":36
					},
					"indices":5,
					"material":0
				}
			]
		},
		{
			"name":"Building_082_Mesh.013",
			"primitives":[
				{
					"attributes":{
						"POSITION":37,
						"NORMAL":38
					},
					"indices":14,
					"material":0
				}
			]
		},
		{
			"name":"Building_083_Mesh.013",
			"primitives":[
				{
					"attributes":{
						"POSITION":39,
						"NORMAL":40
					},
					"indices":41,
					"material":0
				}
			]
		}
	],
	"accessors":[
		{
			"bufferView":0,
			"componentType":5126,
			"count":36,
			"max":[
				0.26690220832824707,
				-0.42765215039253235,
				0.035054344683885574
			],
			"min":[
				0.24516302347183228,
				-0.4711304008960724,
				0.035054344683885574
			],
			"type":"VEC3"
		},
		{
			"bufferView":1,
			"componentType":5126,
			"count":36,
			"type":"VEC3"
		},
		{
			"bufferView":2,
			"componentType":5123,
			"count":54,
			"type":"SCALAR"
		},
		{
			"bufferView":3,
			"componentType":5126,
			"count":38,
			"max":[
				0.34298908710479736,
				0.15930438041687012,
				0.035054344683885574
			],
			"min":[
				0.3212500214576721,
				0.12017399072647095,
				0.035054344683885574
			],
			"type":"VEC3"
		},
		{
			"bufferView":4,
			"componentType":5126,
			"count":38,
			"type":"VEC3"
		},
		{
			"bufferView":5,
			"componentType":5123,
			"count":60,
			"type":"SCALAR"
		},
		{
			"bufferView":6,
			"componentType":5126,
			"count":76,
			"max":[
				0.3516847491264343,
				0.07778263092041016,
				0.04592391476035118
			],
			"min":[
				0.31255435943603516,
				0.022347837686538696,
				0.04592391476035118
			],
			"type":"VEC3"
		},
		{
			"bufferView":7,
			"componentType":5126,
			"count":76,
			"type":"VEC3"
		},
		{
			"bufferView":8,
			"componentType":5123,
			"count":114,
			"type":"SCALAR"
		},
		{
			"bufferView":9,
			"componentType":5126,
			"count":80,
			"max":[
				0.3516847491264343,
				-0.02004346251487732,
				0.04592391476035118
			],
			"min":[
				0.31255435943603516,
				-0.07982605695724487,
				0.04592391476035118
			],
			"type":"VEC3"
		},
		{
			"bufferView":10,
			"componentType":5126,
			"count":80,
			"type":"VEC3"
		},
		{
			"bufferView":11,
			"componentType":5123,
			"count":120,
			"type":"SCALAR"
		},
		{
			"bufferView":12,
			"componentType":5126,
			"count":16,
			"max":[
				0.34298914670944214,
				-0.15047824382781982,
				0.04592391476035118
			],
			"min":[
				0.3212500214576721,
				-0.17330431938171387,
				0.04592391476035118
			],
			"type":"VEC3"
		},
		{
			"bufferView":13,
			"componentType":5126,
			"count":16,
			"type":"VEC3"
		},
		{
			"bufferView":14,
			"componentType":5123,
			"count":24,
			"type":"SCALAR"
		},
		{
			"bufferView":15,
			"componentType":5126,
			"count":52,
			"max":[
				0.3516847491264343,
				-0.2319999784231186,
				0.035054344683885574
			],
			"min":[
				0.31255435943603516,
				-0.2754782438278198,
				0.035054344683885574
			],
			"type":"VEC3"
		},
		{
			"bufferView":16,
			"componentType":5126,
			"count":52,
			"type":"VEC3"
		},
		{
			"bufferView":17,
			"componentType":5123,
			"count":78,
			"type":"SCALAR"
		},
		{
			"bufferView":18,
			"componentType":5126,
			"count":32,
			"max":[
				0.3516847491264343,
				-0.3461304306983948,
				0.04592391476035118
			],
			"min":[
				0.31255435943603516,
				-0.3689565062522888,
				0.04592391476035118
			],
			"type":"VEC3"
		},
		{
			"bufferView":19,
			"componentType":5126,
			"count":32,
			"type":"VEC3"
		},
		{
			"bufferView":20,
			"componentType":5123,
			"count":48,
			"type":"SCALAR"
		},
		{
			"bufferView":21,
			"componentType":5126,
			"count":68,
			"max":[
				0.3516847491264343,
				-0.42765215039253235,
				0.05679347738623619
			],
			"min":[
				0.31255435943603516,
				-0.4711304008960724,
				0.05679347738623619
			],
			"type":"VEC3"
		},
		{
			"bufferView":22,
			"componentType":5126,
			"count":68,
			"type":"VEC3"
		},
		{
			"bufferView":23,
			"componentType":5123,
			"count":102,
			"type":"SCALAR"
		},
		{
			"bufferView":24,
			"componentType":5126,
			"count":32,
			"max":[
				0.42777174711227417,
				0.14300000667572021,
				0.05679347738623619
			],
			"min":[
				0.3886412978172302,
				0.11582612991333008,
				0.05679347738623619
			],
			"type":"VEC3"
		},
		{
			"bufferView":25,
			"componentType":5126,
			"count":32,
			"type":"VEC3"
		},
		{
			"bufferView":26,
			"componentType":5123,
			"count":48,
			"type":"SCALAR"
		},
		{
			"bufferView":27,
			"componentType":5126,
			"count":24,
			"max":[
				0.4277716875076294,
				0.04517388343811035,
				0.04592391476035118
			],
			"min":[
				0.3886412978172302,
				0.018000036478042603,
				0.04592391476035118
			],
			"type":"VEC3"
		},
		{
			"bufferView":28,
			"componentType":5126,
			"count":24,
			"type":"VEC3"
		},
		{
			"bufferView":29,
			"componentType":5123,
			"count":36,
			"type":"SCALAR"
		},
		{
			"bufferView":30,
			"componentType":5126,
			"count":36,
			"max":[
				0.419076144695282,
				-0.036347806453704834,
				0.035054344683885574
			],
			"min":[
				0.3973369598388672,
				-0.07982605695724487,
				0.035054344683885574
			],
			"type":"VEC3"
		},
		{
			"bufferView":31,
			"componentType":5126,
			"count":36,
			"type":"VEC3"
		},
		{
			"bufferView":32,
			"componentType":5126,
			"count":39,
			"max":[
				0.4190760850906372,
				-0.1341738998889923,
				0.05679347738623619
			],
			"min":[
				0.3973369598388672,
				-0.1754782497882843,
				0.05679347738623619
			],
			"type":"VEC3"
		},
		{
			"bufferView":33,
			"componentType":5126,
			"count":39,
			"type":"VEC3"
		},
		{
			"bufferView":34,
			"componentType":5123,
			"count":63,
			"type":"SCALAR"
		},
		{
			"bufferView":35,
			"componentType":5126,
			"count":38,
			"max":[
				0.4190760850906372,
				-0.2319999784231186,
				0.035054344683885574
			],
			"min":[
				0.3973369598388672,
				-0.27113041281700134,
				0.035054344683885574
			],
			"type":"VEC3"
		},
		{
			"bufferView":36,
			"componentType":5126,
			"count":38,
			"type":"VEC3"
		},
		{
			"bufferView":37,
			"componentType":5126,
			"count":16,
			"max":[
				0.419076144695282,
				-0.3461304306983948,
				0.05679347738623619
			],
			"min":[
				0.3973369598388672,
				-0.3689565062522888,
				0.05679347738623619
			],
			"type":"VEC3"
		},
		{
			"bufferView":38,
			"componentType":5126,
			"count":16,
			"type":"VEC3"
		},
		{
			"bufferView":39,
			"componentType":5126,
			"count":28,
			"max":[
				0.42777174711227417,
				-0.44395649433135986,
				0.04592391476035118
			],
			"min":[
				0.3886412978172302,
				-0.46895650029182434,
				0.04592391476035118
			],
			"type":"VEC3"
		},
		{
			"bufferView":40,
			"componentType":5126,
			"count":28,
			"type":"VEC3"
		},
		{
			"bufferView":41,
			"componentType":5123,
			"count":42,
			"type":"SCALAR"
		}
	],
	"bufferViews":[
		{
			"buffer":0,
			"byteLength":432,
			"byteOffset":0,
			"target":34962
		},
		{
			"buffer":0,
			"byteLength":432,
			"byteOffset":432,
			"target":34962
		},
		{
			"buffer":0,
			"byteLength":108,
			"byteOffset":864,
			"target":34963
		},
		{
			"buffer":0,
			"byteLength":456,
			"byteOffset":972,
			"target":34962
		},
		{
			"buffer":0,
			"byteLength":456,
			"byteOffset":1428,
			"target":34962
		},
		{
			"buffer":0,
			"byteLength":120,
			"byteOffset":1884,
			"target":34963
		},
		{
			"buffer":0,
			"byteLength":912,
			"byteOffset":2004,
			"target":34962
		},
		{
			"buffer":0,
			"byteLength":912,
			"byteOffset":2916,
			"target":34962
		},
		{
			"buffer":0,
			"byteLength":228,
			"byteOffset":3828,
			"target":34963
		},
		{
			"buffer":0,
			"byteLength":960,
			"byteOffset":4056,
			"target":34962
		},
		{
			"buffer":0,
			"byteLength":960,
			"byteOffset":5016,
			"target":34962
		},
		{
			"buffer":0,
			"byteLength":240,
			"byteOffset":5976,
			"target":34963
		},
		{
			"buffer":0,
			"byteLength":192,
			"byteOffset":6216,
			"target":34962
		},
		{
			"buffer":0,
			"byteLength":192,
			"byteOffset":6408,
			"target":34962
		},
		{
			"buffer":0,
			"byteLength":48,
			"byteOffset":6600,
			"target":34963
		},
		{
			"buffer":0,
			"byteLength":624,
			"byteOffset":6648,
			"target":34962
		},
		{
			"buffer":0,
			"byteLength":624,
			"byteOffset":7272,
			"target":34962
		},
		{
			"buffer":0,
			"byteLength":156,
			"byteOffset":7896,
			"target":34963
		},
		{
			"buffer":0,
			"byteLength":384,
			"byteOffset":8052,
			"target":34962
		},
		{
			"buffer":0,
			"byteLength":384,
			"byteOffset":8436,
			"target":34962
		},
		{
			"buffer":0,
			"byteLength":96,
			"byteOffset":8820,
			"target":34963
		},
		{
			"buffer":0,
			"byteLength":816,
			"byteOffset":8916,
			"target":34962
		},
		{
			"buffer":0,
			"byteLength":816,
			"byteOffset":9732,
			"target":34962
		},
		{
			"buffer":0,
			"byteLength":204,
			"byteOffset":10548,
			"target":34963
		},
		{
			"buffer":0,
			"byteLength":384,
			"byteOffset":10752,
			"target":34962
		},
		{
			"buffer":0,
			"byteLength":384,
			"byteOffset":11136,
			"target":34962
		},
		{
			"buffer":0,
			"byteLength":96,
			"byteOffset":11520,
			"target":34963
		},
		{
			"buffer":0,
			"byteLength":288,
			"byteOffset":11616,
			"target":34962
		},
		{
			"buffer":0,
			"byteLength":288,
			"byteOffset":11904,
			"target":34962
		},
		{
			"buffer":0,
			"byteLength":72,
			"byteOffset":12192,
			"target":34963
		},
		{
			"buffer":0,
			"byteLength":432,
			"byteOffset":12264,
			"target":34962
		},
		{
			"buffer":0,
			"byteLength":432,
			"byteOffset":12696,
			"target":34962
		},
		{
			"buffer":0,
			"byteLength":468,
			"byteOffset":13128,
			"target":34962
		},
		{
			"buffer":0,
			"byteLength":468,
			"byteOffset":13596,
			"target":34962
		},
		{
			"buffer":0,
			"byteLength":126,
			"byteOffset":14064,
			"target":34963
		},
		{
			"buffer":0,
			"byteLength":456,
			"byteOffset":14192,
			"target":34962
		},
		{
			"buffer":0,
			"byteLength":456,
			"byteOffset":14648,
			"target":34962
		},
		{
			"buffer":0,
			"byteLength":192,
			"byteOffset":15104,
			"target":34962
		},
		{
			"buffer":0,
			"byteLength":192,
			"byteOffset":15296,
			"target":34962
		},
		{
			"buffer":0,
			"byteLength":336,
			"byteOffset":15488,
			"target":34962
		},
		{
			"buffer":0,
			"byteLength":336,
			"byteOffset":15824,
			"target":34962
		},
		{
			"buffer":0,
			"byteLength":84,
			"byteOffset":16160,
			"target":34963
		}
	],
	"buffers":[
		{
			"byteLength":16244,
			"uri":"Sahne2Gridisik.bin"
		}
	]
}
