{
	"asset":{
		"generator":"Khronos glTF Blender I/O v4.2.60",
		"version":"2.0"
	},
	"scene":0,
	"scenes":[
		{
			"name":"Scene",
			"nodes":[
				0,
				1
			]
		}
	],
	"nodes":[
		{
			"mesh":0,
			"name":"Sahne1Surplus2PencereSolar"
		},
		{
			"mesh":1,
			"name":"Building_019.016",
			"translation":[
				0,
				0,
				0.0005000000237487257
			]
		}
	],
	"materials":[
		{
			"doubleSided":true,
			"name":"PencereSolar",
			"pbrMetallicRoughness":{
				"baseColorFactor":[
					0.9822452664375305,
					0.38132646679878235,
					0.0030353753827512264,
					1
				],
				"metallicFactor":0,
				"roughnessFactor":0.5
			}
		}
	],
	"meshes":[
		{
			"name":"Building_020_Mesh.006",
			"primitives":[
				{
					"attributes":{
						"POSITION":0,
						"NORMAL":1
					},
					"indices":2,
					"material":0
				}
			]
		},
		{
			"name":"Building_019_Mesh.019",
			"primitives":[
				{
					"attributes":{
						"POSITION":3,
						"NORMAL":4
					},
					"indices":5,
					"material":0
				}
			]
		}
	],
	"accessors":[
		{
			"bufferView":0,
			"componentType":5126,
			"count":64,
			"max":[
				-0.257010817527771,
				-0.3298260569572449,
				0.05679347738623619
			],
			"min":[
				-0.29614123702049255,
				-0.37113040685653687,
				0.05679347738623619
			],
			"type":"VEC3"
		},
		{
			"bufferView":1,
			"componentType":5126,
			"count":64,
			"type":"VEC3"
		},
		{
			"bufferView":2,
			"componentType":5123,
			"count":96,
			"type":"SCALAR"
		},
		{
			"bufferView":3,
			"componentType":5126,
			"count":30,
			"max":[
				-0.257010817527771,
				-0.44395649433135986,
				0.033967386931180954
			],
			"min":[
				-0.29614126682281494,
				-0.4667825996875763,
				0.033967386931180954
			],
			"type":"VEC3"
		},
		{
			"bufferView":4,
			"componentType":5126,
			"count":30,
			"type":"VEC3"
		},
		{
			"bufferView":5,
			"componentType":5123,
			"count":48,
			"type":"SCALAR"
		}
	],
	"bufferViews":[
		{
			"buffer":0,
			"byteLength":768,
			"byteOffset":0,
			"target":34962
		},
		{
			"buffer":0,
			"byteLength":768,
			"byteOffset":768,
			"target":34962
		},
		{
			"buffer":0,
			"byteLength":192,
			"byteOffset":1536,
			"target":34963
		},
		{
			"buffer":0,
			"byteLength":360,
			"byteOffset":1728,
			"target":34962
		},
		{
			"buffer":0,
			"byteLength":360,
			"byteOffset":2088,
			"target":34962
		},
		{
			"buffer":0,
			"byteLength":96,
			"byteOffset":2448,
			"target":34963
		}
	],
	"buffers":[
		{
			"byteLength":2544,
			"uri":"Sahne1Gridisik.bin"
		}
	]
}
