{
	"asset":{
		"generator":"Khronos glTF Blender I/O v4.2.60",
		"version":"2.0"
	},
	"scene":0,
	"scenes":[
		{
			"name":"Scene",
			"nodes":[
				0,
				1,
				2,
				3,
				4,
				5,
				6,
				7,
				8,
				9,
				10,
				11,
				12,
				13,
				14,
				15,
				16,
				17
			]
		}
	],
	"nodes":[
		{
			"mesh":0,
			"name":"Pencere1.003"
		},
		{
			"mesh":1,
			"name":"Pencere5.003"
		},
		{
			"mesh":2,
			"name":"Pencere18.002"
		},
		{
			"mesh":3,
			"name":"Pencere2.003"
		},
		{
			"mesh":4,
			"name":"Pencere11.003"
		},
		{
			"mesh":5,
			"name":"Pencere7.003"
		},
		{
			"mesh":6,
			"name":"Pencere3.003"
		},
		{
			"mesh":7,
			"name":"Pencere9.003"
		},
		{
			"mesh":8,
			"name":"Pencere13.003"
		},
		{
			"mesh":9,
			"name":"Pencere8.003"
		},
		{
			"mesh":10,
			"name":"Pencere17.002"
		},
		{
			"mesh":11,
			"name":"Pencere14.003"
		},
		{
			"mesh":12,
			"name":"Pencere10.003"
		},
		{
			"mesh":13,
			"name":"Pencere15.003"
		},
		{
			"mesh":14,
			"name":"Pencere6.003"
		},
		{
			"mesh":15,
			"name":"Pencere4.003"
		},
		{
			"mesh":16,
			"name":"Pencere12.003"
		},
		{
			"mesh":17,
			"name":"Pencere16.002"
		}
	],
	"materials":[
		{
			"doubleSided":true,
			"name":"PencereSolar",
			"pbrMetallicRoughness":{
				"baseColorFactor":[
					0.9822452664375305,
					0.38132646679878235,
					0.0030353753827512264,
					1
				],
				"metallicFactor":0,
				"roughnessFactor":0.5
			}
		}
	],
	"meshes":[
		{
			"name":"Building_000_Mesh.011",
			"primitives":[
				{
					"attributes":{
						"POSITION":0,
						"NORMAL":1
					},
					"indices":2,
					"material":0
				}
			]
		},
		{
			"name":"Building_004_Mesh.006",
			"primitives":[
				{
					"attributes":{
						"POSITION":3,
						"NORMAL":4
					},
					"indices":5,
					"material":0
				}
			]
		},
		{
			"name":"Building_017_Mesh.006",
			"primitives":[
				{
					"attributes":{
						"POSITION":6,
						"NORMAL":7
					},
					"indices":8,
					"material":0
				}
			]
		},
		{
			"name":"Building_001_Mesh.006",
			"primitives":[
				{
					"attributes":{
						"POSITION":9,
						"NORMAL":10
					},
					"indices":2,
					"material":0
				}
			]
		},
		{
			"name":"Building_010_Mesh.006",
			"primitives":[
				{
					"attributes":{
						"POSITION":11,
						"NORMAL":12
					},
					"indices":13,
					"material":0
				}
			]
		},
		{
			"name":"Building_006_Mesh.006",
			"primitives":[
				{
					"attributes":{
						"POSITION":14,
						"NORMAL":15
					},
					"indices":16,
					"material":0
				}
			]
		},
		{
			"name":"Building_002_Mesh.006",
			"primitives":[
				{
					"attributes":{
						"POSITION":17,
						"NORMAL":18
					},
					"indices":19,
					"material":0
				}
			]
		},
		{
			"name":"Building_008_Mesh.006",
			"primitives":[
				{
					"attributes":{
						"POSITION":20,
						"NORMAL":21
					},
					"indices":22,
					"material":0
				}
			]
		},
		{
			"name":"Building_012_Mesh.006",
			"primitives":[
				{
					"attributes":{
						"POSITION":23,
						"NORMAL":24
					},
					"indices":25,
					"material":0
				}
			]
		},
		{
			"name":"Building_007_Mesh.006",
			"primitives":[
				{
					"attributes":{
						"POSITION":26,
						"NORMAL":27
					},
					"indices":28,
					"material":0
				}
			]
		},
		{
			"name":"Building_016_Mesh.006",
			"primitives":[
				{
					"attributes":{
						"POSITION":29,
						"NORMAL":30
					},
					"indices":31,
					"material":0
				}
			]
		},
		{
			"name":"Building_013_Mesh.006",
			"primitives":[
				{
					"attributes":{
						"POSITION":32,
						"NORMAL":33
					},
					"indices":2,
					"material":0
				}
			]
		},
		{
			"name":"Building_009_Mesh.006",
			"primitives":[
				{
					"attributes":{
						"POSITION":34,
						"NORMAL":35
					},
					"indices":36,
					"material":0
				}
			]
		},
		{
			"name":"Building_014_Mesh.007",
			"primitives":[
				{
					"attributes":{
						"POSITION":37,
						"NORMAL":38
					},
					"indices":39,
					"material":0
				}
			]
		},
		{
			"name":"Building_005_Mesh.006",
			"primitives":[
				{
					"attributes":{
						"POSITION":40,
						"NORMAL":41
					},
					"indices":2,
					"material":0
				}
			]
		},
		{
			"name":"Building_003_Mesh.006",
			"primitives":[
				{
					"attributes":{
						"POSITION":42,
						"NORMAL":43
					},
					"indices":5,
					"material":0
				}
			]
		},
		{
			"name":"Building_011_Mesh.006",
			"primitives":[
				{
					"attributes":{
						"POSITION":44,
						"NORMAL":45
					},
					"indices":46,
					"material":0
				}
			]
		},
		{
			"name":"Building_015_Mesh.006",
			"primitives":[
				{
					"attributes":{
						"POSITION":47,
						"NORMAL":48
					},
					"indices":36,
					"material":0
				}
			]
		}
	],
	"accessors":[
		{
			"bufferView":0,
			"componentType":5126,
			"count":48,
			"max":[
				-0.40918469429016113,
				0.15930438041687012,
				0.05679347738623619
			],
			"min":[
				-0.4483151435852051,
				0.11800003051757812,
				0.05679347738623619
			],
			"type":"VEC3"
		},
		{
			"bufferView":1,
			"componentType":5126,
			"count":48,
			"type":"VEC3"
		},
		{
			"bufferView":2,
			"componentType":5123,
			"count":72,
			"type":"SCALAR"
		},
		{
			"bufferView":3,
			"componentType":5126,
			"count":39,
			"max":[
				-0.4178803563117981,
				-0.2319999784231186,
				0.04592391476035118
			],
			"min":[
				-0.4396194815635681,
				-0.2733043432235718,
				0.04592391476035118
			],
			"type":"VEC3"
		},
		{
			"bufferView":4,
			"componentType":5126,
			"count":39,
			"type":"VEC3"
		},
		{
			"bufferView":5,
			"componentType":5123,
			"count":63,
			"type":"SCALAR"
		},
		{
			"bufferView":6,
			"componentType":5126,
			"count":64,
			"max":[
				-0.257010817527771,
				-0.13417387008666992,
				0.05679347738623619
			],
			"min":[
				-0.29614123702049255,
				-0.1754782497882843,
				0.05679347738623619
			],
			"type":"VEC3"
		},
		{
			"bufferView":7,
			"componentType":5126,
			"count":64,
			"type":"VEC3"
		},
		{
			"bufferView":8,
			"componentType":5123,
			"count":96,
			"type":"SCALAR"
		},
		{
			"bufferView":9,
			"componentType":5126,
			"count":48,
			"max":[
				-0.40918469429016113,
				0.061478257179260254,
				0.035054344683885574
			],
			"min":[
				-0.4483151435852051,
				0.022347867488861084,
				0.035054344683885574
			],
			"type":"VEC3"
		},
		{
			"bufferView":10,
			"componentType":5126,
			"count":48,
			"type":"VEC3"
		},
		{
			"bufferView":11,
			"componentType":5126,
			"count":48,
			"max":[
				-0.34179338812828064,
				-0.11786952614784241,
				0.05679347738623619
			],
			"min":[
				-0.36353254318237305,
				-0.17547819018363953,
				0.05679347738623619
			],
			"type":"VEC3"
		},
		{
			"bufferView":12,
			"componentType":5126,
			"count":48,
			"type":"VEC3"
		},
		{
			"bufferView":13,
			"componentType":5123,
			"count":72,
			"type":"SCALAR"
		},
		{
			"bufferView":14,
			"componentType":5126,
			"count":76,
			"max":[
				-0.40918469429016113,
				-0.41134780645370483,
				0.05679347738623619
			],
			"min":[
				-0.4483151435852051,
				-0.4711304008960724,
				0.05679347738623619
			],
			"type":"VEC3"
		},
		{
			"bufferView":15,
			"componentType":5126,
			"count":76,
			"type":"VEC3"
		},
		{
			"bufferView":16,
			"componentType":5123,
			"count":120,
			"type":"SCALAR"
		},
		{
			"bufferView":17,
			"componentType":5126,
			"count":38,
			"max":[
				-0.4178803563117981,
				-0.036347776651382446,
				0.035054344683885574
			],
			"min":[
				-0.4396194815635681,
				-0.07547822594642639,
				0.035054344683885574
			],
			"type":"VEC3"
		},
		{
			"bufferView":18,
			"componentType":5126,
			"count":38,
			"type":"VEC3"
		},
		{
			"bufferView":19,
			"componentType":5123,
			"count":60,
			"type":"SCALAR"
		},
		{
			"bufferView":20,
			"componentType":5126,
			"count":56,
			"max":[
				-0.33309775590896606,
				0.061478257179260254,
				0.035054344683885574
			],
			"min":[
				-0.3722281754016876,
				0.022347837686538696,
				0.035054344683885574
			],
			"type":"VEC3"
		},
		{
			"bufferView":21,
			"componentType":5126,
			"count":56,
			"type":"VEC3"
		},
		{
			"bufferView":22,
			"componentType":5123,
			"count":84,
			"type":"SCALAR"
		},
		{
			"bufferView":23,
			"componentType":5126,
			"count":24,
			"max":[
				-0.33309775590896606,
				-0.3461304306983948,
				0.04592391476035118
			],
			"min":[
				-0.3722281754016876,
				-0.3733043074607849,
				0.04592391476035118
			],
			"type":"VEC3"
		},
		{
			"bufferView":24,
			"componentType":5126,
			"count":24,
			"type":"VEC3"
		},
		{
			"bufferView":25,
			"componentType":5123,
			"count":36,
			"type":"SCALAR"
		},
		{
			"bufferView":26,
			"componentType":5126,
			"count":28,
			"max":[
				-0.33309775590896606,
				0.143000066280365,
				0.04592391476035118
			],
			"min":[
				-0.3722281754016876,
				0.12017399072647095,
				0.04592391476035118
			],
			"type":"VEC3"
		},
		{
			"bufferView":27,
			"componentType":5126,
			"count":28,
			"type":"VEC3"
		},
		{
			"bufferView":28,
			"componentType":5123,
			"count":42,
			"type":"SCALAR"
		},
		{
			"bufferView":29,
			"componentType":5126,
			"count":44,
			"max":[
				-0.26570647954940796,
				-0.02004346251487732,
				0.05679347738623619
			],
			"min":[
				-0.287445604801178,
				-0.07765215635299683,
				0.05679347738623619
			],
			"type":"VEC3"
		},
		{
			"bufferView":30,
			"componentType":5126,
			"count":44,
			"type":"VEC3"
		},
		{
			"bufferView":31,
			"componentType":5123,
			"count":66,
			"type":"SCALAR"
		},
		{
			"bufferView":32,
			"componentType":5126,
			"count":48,
			"max":[
				-0.33309775590896606,
				-0.42765215039253235,
				0.035054344683885574
			],
			"min":[
				-0.3722281754016876,
				-0.46895650029182434,
				0.035054344683885574
			],
			"type":"VEC3"
		},
		{
			"bufferView":33,
			"componentType":5126,
			"count":48,
			"type":"VEC3"
		},
		{
			"bufferView":34,
			"componentType":5126,
			"count":36,
			"max":[
				-0.341793417930603,
				-0.036347806453704834,
				0.035054344683885574
			],
			"min":[
				-0.36353254318237305,
				-0.07982605695724487,
				0.035054344683885574
			],
			"type":"VEC3"
		},
		{
			"bufferView":35,
			"componentType":5126,
			"count":36,
			"type":"VEC3"
		},
		{
			"bufferView":36,
			"componentType":5123,
			"count":54,
			"type":"SCALAR"
		},
		{
			"bufferView":37,
			"componentType":5126,
			"count":32,
			"max":[
				-0.257010817527771,
				0.14300000667572021,
				0.05679347738623619
			],
			"min":[
				-0.29614123702049255,
				0.12017393112182617,
				0.05679347738623619
			],
			"type":"VEC3"
		},
		{
			"bufferView":38,
			"componentType":5126,
			"count":32,
			"type":"VEC3"
		},
		{
			"bufferView":39,
			"componentType":5123,
			"count":48,
			"type":"SCALAR"
		},
		{
			"bufferView":40,
			"componentType":5126,
			"count":48,
			"max":[
				-0.40918469429016113,
				-0.3298260569572449,
				0.05679347738623619
			],
			"min":[
				-0.4483151435852051,
				-0.3689565062522888,
				0.05679347738623619
			],
			"type":"VEC3"
		},
		{
			"bufferView":41,
			"componentType":5126,
			"count":48,
			"type":"VEC3"
		},
		{
			"bufferView":42,
			"componentType":5126,
			"count":39,
			"max":[
				-0.4178803563117981,
				-0.1341738998889923,
				0.05679347738623619
			],
			"min":[
				-0.4396194815635681,
				-0.1754782497882843,
				0.05679347738623619
			],
			"type":"VEC3"
		},
		{
			"bufferView":43,
			"componentType":5126,
			"count":39,
			"type":"VEC3"
		},
		{
			"bufferView":44,
			"componentType":5126,
			"count":60,
			"max":[
				-0.33309775590896606,
				-0.2319999784231186,
				0.035054344683885574
			],
			"min":[
				-0.3722281754016876,
				-0.2754782438278198,
				0.035054344683885574
			],
			"type":"VEC3"
		},
		{
			"bufferView":45,
			"componentType":5126,
			"count":60,
			"type":"VEC3"
		},
		{
			"bufferView":46,
			"componentType":5123,
			"count":90,
			"type":"SCALAR"
		},
		{
			"bufferView":47,
			"componentType":5126,
			"count":36,
			"max":[
				-0.26570644974708557,
				0.061478257179260254,
				0.04592391476035118
			],
			"min":[
				-0.2874455749988556,
				0.02017390727996826,
				0.04592391476035118
			],
			"type":"VEC3"
		},
		{
			"bufferView":48,
			"componentType":5126,
			"count":36,
			"type":"VEC3"
		}
	],
	"bufferViews":[
		{
			"buffer":0,
			"byteLength":576,
			"byteOffset":0,
			"target":34962
		},
		{
			"buffer":0,
			"byteLength":576,
			"byteOffset":576,
			"target":34962
		},
		{
			"buffer":0,
			"byteLength":144,
			"byteOffset":1152,
			"target":34963
		},
		{
			"buffer":0,
			"byteLength":468,
			"byteOffset":1296,
			"target":34962
		},
		{
			"buffer":0,
			"byteLength":468,
			"byteOffset":1764,
			"target":34962
		},
		{
			"buffer":0,
			"byteLength":126,
			"byteOffset":2232,
			"target":34963
		},
		{
			"buffer":0,
			"byteLength":768,
			"byteOffset":2360,
			"target":34962
		},
		{
			"buffer":0,
			"byteLength":768,
			"byteOffset":3128,
			"target":34962
		},
		{
			"buffer":0,
			"byteLength":192,
			"byteOffset":3896,
			"target":34963
		},
		{
			"buffer":0,
			"byteLength":576,
			"byteOffset":4088,
			"target":34962
		},
		{
			"buffer":0,
			"byteLength":576,
			"byteOffset":4664,
			"target":34962
		},
		{
			"buffer":0,
			"byteLength":576,
			"byteOffset":5240,
			"target":34962
		},
		{
			"buffer":0,
			"byteLength":576,
			"byteOffset":5816,
			"target":34962
		},
		{
			"buffer":0,
			"byteLength":144,
			"byteOffset":6392,
			"target":34963
		},
		{
			"buffer":0,
			"byteLength":912,
			"byteOffset":6536,
			"target":34962
		},
		{
			"buffer":0,
			"byteLength":912,
			"byteOffset":7448,
			"target":34962
		},
		{
			"buffer":0,
			"byteLength":240,
			"byteOffset":8360,
			"target":34963
		},
		{
			"buffer":0,
			"byteLength":456,
			"byteOffset":8600,
			"target":34962
		},
		{
			"buffer":0,
			"byteLength":456,
			"byteOffset":9056,
			"target":34962
		},
		{
			"buffer":0,
			"byteLength":120,
			"byteOffset":9512,
			"target":34963
		},
		{
			"buffer":0,
			"byteLength":672,
			"byteOffset":9632,
			"target":34962
		},
		{
			"buffer":0,
			"byteLength":672,
			"byteOffset":10304,
			"target":34962
		},
		{
			"buffer":0,
			"byteLength":168,
			"byteOffset":10976,
			"target":34963
		},
		{
			"buffer":0,
			"byteLength":288,
			"byteOffset":11144,
			"target":34962
		},
		{
			"buffer":0,
			"byteLength":288,
			"byteOffset":11432,
			"target":34962
		},
		{
			"buffer":0,
			"byteLength":72,
			"byteOffset":11720,
			"target":34963
		},
		{
			"buffer":0,
			"byteLength":336,
			"byteOffset":11792,
			"target":34962
		},
		{
			"buffer":0,
			"byteLength":336,
			"byteOffset":12128,
			"target":34962
		},
		{
			"buffer":0,
			"byteLength":84,
			"byteOffset":12464,
			"target":34963
		},
		{
			"buffer":0,
			"byteLength":528,
			"byteOffset":12548,
			"target":34962
		},
		{
			"buffer":0,
			"byteLength":528,
			"byteOffset":13076,
			"target":34962
		},
		{
			"buffer":0,
			"byteLength":132,
			"byteOffset":13604,
			"target":34963
		},
		{
			"buffer":0,
			"byteLength":576,
			"byteOffset":13736,
			"target":34962
		},
		{
			"buffer":0,
			"byteLength":576,
			"byteOffset":14312,
			"target":34962
		},
		{
			"buffer":0,
			"byteLength":432,
			"byteOffset":14888,
			"target":34962
		},
		{
			"buffer":0,
			"byteLength":432,
			"byteOffset":15320,
			"target":34962
		},
		{
			"buffer":0,
			"byteLength":108,
			"byteOffset":15752,
			"target":34963
		},
		{
			"buffer":0,
			"byteLength":384,
			"byteOffset":15860,
			"target":34962
		},
		{
			"buffer":0,
			"byteLength":384,
			"byteOffset":16244,
			"target":34962
		},
		{
			"buffer":0,
			"byteLength":96,
			"byteOffset":16628,
			"target":34963
		},
		{
			"buffer":0,
			"byteLength":576,
			"byteOffset":16724,
			"target":34962
		},
		{
			"buffer":0,
			"byteLength":576,
			"byteOffset":17300,
			"target":34962
		},
		{
			"buffer":0,
			"byteLength":468,
			"byteOffset":17876,
			"target":34962
		},
		{
			"buffer":0,
			"byteLength":468,
			"byteOffset":18344,
			"target":34962
		},
		{
			"buffer":0,
			"byteLength":720,
			"byteOffset":18812,
			"target":34962
		},
		{
			"buffer":0,
			"byteLength":720,
			"byteOffset":19532,
			"target":34962
		},
		{
			"buffer":0,
			"byteLength":180,
			"byteOffset":20252,
			"target":34963
		},
		{
			"buffer":0,
			"byteLength":432,
			"byteOffset":20432,
			"target":34962
		},
		{
			"buffer":0,
			"byteLength":432,
			"byteOffset":20864,
			"target":34962
		}
	],
	"buffers":[
		{
			"byteLength":21296,
			"uri":"Sahne1Mevcutisik.bin"
		}
	]
}
