{
	"asset":{
		"generator":"Khronos glTF Blender I/O v4.2.60",
		"version":"2.0"
	},
	"scene":0,
	"scenes":[
		{
			"name":"Scene",
			"nodes":[
				0,
				2,
				4,
				6,
				8,
				10,
				12,
				14,
				16,
				18,
				20,
				22
			]
		}
	],
	"nodes":[
		{
			"mesh":0,
			"name":"Simsek1.3Kayan",
			"translation":[
				-0.39070644974708557,
				-0.5491710901260376,
				0.020929347723722458
			]
		},
		{
			"mesh":1,
			"name":"Cube.003",
			"translation":[
				0.38986915349960327,
				0.493316650390625,
				-0.0248983483761549
			]
		},
		{
			"children":[
				1
			],
			"name":"Bar8",
			"scale":[
				1,
				0.0010000000474974513,
				1
			],
			"translation":[
				-0.38986915349960327,
				-0.4933151304721832,
				0.0248983483761549
			]
		},
		{
			"mesh":2,
			"name":"Cube.002",
			"rotation":[
				0,
				0,
				-0.7071068286895752,
				0.7071068286895752
			],
			"translation":[
				0.392059326171875,
				0.5259238481521606,
				-0.02489835023880005
			]
		},
		{
			"children":[
				3
			],
			"name":"Bar9",
			"scale":[
				0.0010000000474974513,
				1,
				1
			],
			"translation":[
				-0.3920430839061737,
				-0.5259238481521606,
				0.02489835023880005
			]
		},
		{
			"mesh":3,
			"name":"Cube.001",
			"translation":[
				0.2757387161254883,
				0.52593994140625,
				-0.025271747261285782
			]
		},
		{
			"children":[
				5
			],
			"name":"Bar10",
			"scale":[
				1,
				0.0010000000474974513,
				1
			],
			"translation":[
				-0.2757387161254883,
				-0.5259237885475159,
				0.025271747261285782
			]
		},
		{
			"mesh":4,
			"name":"Cube.005",
			"translation":[
				0.27573853731155396,
				0.5035400390625,
				-0.02527175284922123
			]
		},
		{
			"children":[
				7
			],
			"name":"Bar11",
			"scale":[
				1,
				0.0010000000474974513,
				1
			],
			"translation":[
				-0.27573853731155396,
				-0.5035259127616882,
				0.02527175284922123
			]
		},
		{
			"mesh":5,
			"name":"Cube.011",
			"rotation":[
				0,
				0,
				-0.7071068286895752,
				0.7071068286895752
			],
			"scale":[
				0.375,
				3.944669008255005,
				0.3749999701976776
			],
			"translation":[
				0.1400146484375,
				-0.006509721279144287,
				0
			]
		},
		{
			"children":[
				9
			],
			"name":"Bar1",
			"scale":[
				0.0009999871253967285,
				1,
				1
			],
			"translation":[
				-0.3898680806159973,
				-0.49395644664764404,
				0.02489835023880005
			]
		},
		{
			"mesh":6,
			"name":"Cube.004",
			"scale":[
				0.375,
				14.65000057220459,
				0.3749999701976776
			],
			"translation":[
				0.06390106678009033,
				-0.007171630859375,
				0
			]
		},
		{
			"children":[
				11
			],
			"name":"Bar2",
			"scale":[
				1,
				0.0009999871253967285,
				1
			],
			"translation":[
				-0.31378111243247986,
				-0.4933151602745056,
				0.024898361414670944
			]
		},
		{
			"mesh":7,
			"name":"Cube.006",
			"rotation":[
				0,
				0,
				-0.7071068286895752,
				0.7071068286895752
			],
			"scale":[
				0.375,
				3.944669008255005,
				0.3749999701976776
			],
			"translation":[
				0.06610107421875,
				-0.30062928795814514,
				0
			]
		},
		{
			"children":[
				13
			],
			"name":"bar3",
			"scale":[
				0.0009999871253967285,
				1,
				1
			],
			"translation":[
				-0.31595614552497864,
				-0.1998368203639984,
				0.02489835023880005
			]
		},
		{
			"mesh":8,
			"name":"Cube.007",
			"scale":[
				0.375,
				19.56519889831543,
				0.3749999701976776
			],
			"translation":[
				-0.012184783816337585,
				-0.30279541015625,
				0
			]
		},
		{
			"children":[
				15
			],
			"name":"Bar4",
			"scale":[
				1,
				0.0009999871253967285,
				1
			],
			"translation":[
				-0.23769526183605194,
				-0.19766297936439514,
				0.02489835023880005
			]
		},
		{
			"mesh":9,
			"name":"Cube.008",
			"rotation":[
				0,
				0,
				-0.7071068286895752,
				0.7071068286895752
			],
			"scale":[
				0.375,
				10.977520942687988,
				0.3749999701976776
			],
			"translation":[
				-0.0143585205078125,
				-0.6919336915016174,
				0
			]
		},
		{
			"children":[
				17
			],
			"name":"Bar5",
			"scale":[
				0.0009999871253967285,
				1,
				1
			],
			"translation":[
				-0.2355213612318039,
				0.1914675235748291,
				0.0248983483761549
			]
		},
		{
			"mesh":10,
			"name":"Cube.009",
			"scale":[
				0.375,
				34.23915100097656,
				0.3749999701976776
			],
			"translation":[
				0.4659561514854431,
				-0.1908416748046875,
				-0.024898352101445198
			]
		},
		{
			"children":[
				19
			],
			"name":"Bar6",
			"scale":[
				1,
				0.0009999871253967285,
				1
			],
			"translation":[
				-0.4659561514854431,
				0.1908450722694397,
				0.02489835023880005
			]
		},
		{
			"mesh":11,
			"name":"Cube.010",
			"rotation":[
				0,
				0,
				-0.7071068286895752,
				0.7071068286895752
			],
			"scale":[
				0.375,
				3.944668769836426,
				0.3749999701976776
			],
			"translation":[
				0.4681396484375,
				0.49395647644996643,
				-0.02489835023880005
			]
		},
		{
			"children":[
				21
			],
			"name":"Bar7",
			"scale":[
				0.0010000000474974513,
				1,
				1
			],
			"translation":[
				-0.46813005208969116,
				-0.49395644664764404,
				0.02489835023880005
			]
		}
	],
	"materials":[
		{
			"doubleSided":true,
			"name":"PencereSolar.005",
			"pbrMetallicRoughness":{
				"baseColorFactor":[
					0.9822452664375305,
					0.38132646679878235,
					0.0030353753827512264,
					1
				],
				"metallicFactor":0,
				"roughnessFactor":0.5
			}
		}
	],
	"meshes":[
		{
			"name":"Plane.005",
			"primitives":[
				{
					"attributes":{
						"POSITION":0,
						"NORMAL":1,
						"TEXCOORD_0":2
					},
					"indices":3,
					"material":0
				}
			]
		},
		{
			"name":"Cube.005",
			"primitives":[
				{
					"attributes":{
						"POSITION":4,
						"NORMAL":5
					},
					"indices":6,
					"material":0
				}
			]
		},
		{
			"name":"Cube.004",
			"primitives":[
				{
					"attributes":{
						"POSITION":7,
						"NORMAL":8
					},
					"indices":6,
					"material":0
				}
			]
		},
		{
			"name":"Cube.008",
			"primitives":[
				{
					"attributes":{
						"POSITION":9,
						"NORMAL":10
					},
					"indices":6,
					"material":0
				}
			]
		},
		{
			"name":"Cube.007",
			"primitives":[
				{
					"attributes":{
						"POSITION":11,
						"NORMAL":12
					},
					"indices":13,
					"material":0
				}
			]
		},
		{
			"name":"Cube.015",
			"primitives":[
				{
					"attributes":{
						"POSITION":14,
						"NORMAL":15
					},
					"indices":6,
					"material":0
				}
			]
		},
		{
			"name":"Cube.009",
			"primitives":[
				{
					"attributes":{
						"POSITION":16,
						"NORMAL":17
					},
					"indices":6,
					"material":0
				}
			]
		},
		{
			"name":"Cube.010",
			"primitives":[
				{
					"attributes":{
						"POSITION":18,
						"NORMAL":19
					},
					"indices":6,
					"material":0
				}
			]
		},
		{
			"name":"Cube.011",
			"primitives":[
				{
					"attributes":{
						"POSITION":20,
						"NORMAL":21
					},
					"indices":6,
					"material":0
				}
			]
		},
		{
			"name":"Cube.012",
			"primitives":[
				{
					"attributes":{
						"POSITION":22,
						"NORMAL":23
					},
					"indices":6,
					"material":0
				}
			]
		},
		{
			"name":"Cube.013",
			"primitives":[
				{
					"attributes":{
						"POSITION":24,
						"NORMAL":25
					},
					"indices":6,
					"material":0
				}
			]
		},
		{
			"name":"Cube.014",
			"primitives":[
				{
					"attributes":{
						"POSITION":26,
						"NORMAL":27
					},
					"indices":6,
					"material":0
				}
			]
		}
	],
	"accessors":[
		{
			"bufferView":0,
			"componentType":5126,
			"count":54,
			"max":[
				0.011328505352139473,
				0.018022485077381134,
				0.003804348409175873
			],
			"min":[
				-0.010736746713519096,
				-0.021732978522777557,
				-0.003804348409175873
			],
			"type":"VEC3"
		},
		{
			"bufferView":1,
			"componentType":5126,
			"count":54,
			"type":"VEC3"
		},
		{
			"bufferView":2,
			"componentType":5126,
			"count":54,
			"type":"VEC2"
		},
		{
			"bufferView":3,
			"componentType":5123,
			"count":96,
			"type":"SCALAR"
		},
		{
			"bufferView":4,
			"componentType":5126,
			"count":24,
			"max":[
				-0.38611915707588196,
				-0.4936194121837616,
				0.02864834852516651
			],
			"min":[
				-0.3936191499233246,
				-0.525619387626648,
				0.021148348227143288
			],
			"type":"VEC3"
		},
		{
			"bufferView":5,
			"componentType":5126,
			"count":24,
			"type":"VEC3"
		},
		{
			"bufferView":6,
			"componentType":5123,
			"count":36,
			"type":"SCALAR"
		},
		{
			"bufferView":7,
			"componentType":5126,
			"count":24,
			"max":[
				0.525619387626648,
				-0.27282601594924927,
				0.02864835038781166
			],
			"min":[
				0.5181193351745605,
				-0.393619179725647,
				0.021148350089788437
			],
			"type":"VEC3"
		},
		{
			"bufferView":8,
			"componentType":5126,
			"count":24,
			"type":"VEC3"
		},
		{
			"bufferView":9,
			"componentType":5126,
			"count":24,
			"max":[
				-0.27282601594924927,
				-0.487748920917511,
				0.02864835038781166
			],
			"min":[
				-0.2803260087966919,
				-0.5256193280220032,
				0.021148350089788437
			],
			"type":"VEC3"
		},
		{
			"bufferView":10,
			"componentType":5126,
			"count":24,
			"type":"VEC3"
		},
		{
			"bufferView":11,
			"componentType":5126,
			"count":48,
			"max":[
				-0.26120424270629883,
				-0.4824455976486206,
				0.028648346662521362
			],
			"min":[
				-0.29194778203964233,
				-0.5031207203865051,
				0.02114834636449814
			],
			"type":"VEC3"
		},
		{
			"bufferView":12,
			"componentType":5126,
			"count":48,
			"type":"VEC3"
		},
		{
			"bufferView":13,
			"componentType":5123,
			"count":72,
			"type":"SCALAR"
		},
		{
			"bufferView":14,
			"componentType":5126,
			"count":24,
			"max":[
				-0.007359256036579609,
				-0.015248700976371765,
				0.009999992325901985
			],
			"min":[
				-0.027359256520867348,
				-0.03561437875032425,
				-0.010000007227063179
			],
			"type":"VEC3"
		},
		{
			"bufferView":15,
			"componentType":5126,
			"count":24,
			"type":"VEC3"
		},
		{
			"bufferView":16,
			"componentType":5126,
			"count":24,
			"max":[
				-0.1604028195142746,
				0.02050444483757019,
				0.010000022128224373
			],
			"min":[
				-0.18040283024311066,
				0.0005044452846050262,
				-0.009999977424740791
			],
			"type":"VEC3"
		},
		{
			"bufferView":17,
			"componentType":5126,
			"count":24,
			"type":"VEC3"
		},
		{
			"bufferView":18,
			"componentType":5126,
			"count":24,
			"max":[
				-0.7916781902313232,
				0.004039570689201355,
				0.009999992325901985
			],
			"min":[
				-0.8116781711578369,
				-0.01715000346302986,
				-0.010000007227063179
			],
			"type":"VEC3"
		},
		{
			"bufferView":19,
			"componentType":5126,
			"count":24,
			"type":"VEC3"
		},
		{
			"bufferView":20,
			"componentType":5126,
			"count":24,
			"max":[
				0.04249275475740433,
				0.03555719554424286,
				0.009999999776482582
			],
			"min":[
				0.022492757067084312,
				0.015476629137992859,
				-0.009999999776482582
			],
			"type":"VEC3"
		},
		{
			"bufferView":21,
			"componentType":5126,
			"count":24,
			"type":"VEC3"
		},
		{
			"bufferView":22,
			"componentType":5126,
			"count":24,
			"max":[
				-1.8351565599441528,
				0.001451585441827774,
				0.009999984875321388
			],
			"min":[
				-1.8551565408706665,
				-0.020025109872221947,
				-0.010000014677643776
			],
			"type":"VEC3"
		},
		{
			"bufferView":23,
			"componentType":5126,
			"count":24,
			"type":"VEC3"
		},
		{
			"bufferView":24,
			"componentType":5126,
			"count":24,
			"max":[
				-1.2325496673583984,
				0.005701588466763496,
				0.07639560848474503
			],
			"min":[
				-1.252549648284912,
				-0.014426108449697495,
				0.05639561265707016
			],
			"type":"VEC3"
		},
		{
			"bufferView":25,
			"componentType":5126,
			"count":24,
			"type":"VEC3"
		},
		{
			"bufferView":26,
			"componentType":5126,
			"count":24,
			"max":[
				1.3272172212600708,
				-0.09896065294742584,
				0.07639560103416443
			],
			"min":[
				1.3072172403335571,
				-0.11907367408275604,
				0.05639560520648956
			],
			"type":"VEC3"
		},
		{
			"bufferView":27,
			"componentType":5126,
			"count":24,
			"type":"VEC3"
		}
	],
	"bufferViews":[
		{
			"buffer":0,
			"byteLength":648,
			"byteOffset":0,
			"target":34962
		},
		{
			"buffer":0,
			"byteLength":648,
			"byteOffset":648,
			"target":34962
		},
		{
			"buffer":0,
			"byteLength":432,
			"byteOffset":1296,
			"target":34962
		},
		{
			"buffer":0,
			"byteLength":192,
			"byteOffset":1728,
			"target":34963
		},
		{
			"buffer":0,
			"byteLength":288,
			"byteOffset":1920,
			"target":34962
		},
		{
			"buffer":0,
			"byteLength":288,
			"byteOffset":2208,
			"target":34962
		},
		{
			"buffer":0,
			"byteLength":72,
			"byteOffset":2496,
			"target":34963
		},
		{
			"buffer":0,
			"byteLength":288,
			"byteOffset":2568,
			"target":34962
		},
		{
			"buffer":0,
			"byteLength":288,
			"byteOffset":2856,
			"target":34962
		},
		{
			"buffer":0,
			"byteLength":288,
			"byteOffset":3144,
			"target":34962
		},
		{
			"buffer":0,
			"byteLength":288,
			"byteOffset":3432,
			"target":34962
		},
		{
			"buffer":0,
			"byteLength":576,
			"byteOffset":3720,
			"target":34962
		},
		{
			"buffer":0,
			"byteLength":576,
			"byteOffset":4296,
			"target":34962
		},
		{
			"buffer":0,
			"byteLength":144,
			"byteOffset":4872,
			"target":34963
		},
		{
			"buffer":0,
			"byteLength":288,
			"byteOffset":5016,
			"target":34962
		},
		{
			"buffer":0,
			"byteLength":288,
			"byteOffset":5304,
			"target":34962
		},
		{
			"buffer":0,
			"byteLength":288,
			"byteOffset":5592,
			"target":34962
		},
		{
			"buffer":0,
			"byteLength":288,
			"byteOffset":5880,
			"target":34962
		},
		{
			"buffer":0,
			"byteLength":288,
			"byteOffset":6168,
			"target":34962
		},
		{
			"buffer":0,
			"byteLength":288,
			"byteOffset":6456,
			"target":34962
		},
		{
			"buffer":0,
			"byteLength":288,
			"byteOffset":6744,
			"target":34962
		},
		{
			"buffer":0,
			"byteLength":288,
			"byteOffset":7032,
			"target":34962
		},
		{
			"buffer":0,
			"byteLength":288,
			"byteOffset":7320,
			"target":34962
		},
		{
			"buffer":0,
			"byteLength":288,
			"byteOffset":7608,
			"target":34962
		},
		{
			"buffer":0,
			"byteLength":288,
			"byteOffset":7896,
			"target":34962
		},
		{
			"buffer":0,
			"byteLength":288,
			"byteOffset":8184,
			"target":34962
		},
		{
			"buffer":0,
			"byteLength":288,
			"byteOffset":8472,
			"target":34962
		},
		{
			"buffer":0,
			"byteLength":288,
			"byteOffset":8760,
			"target":34962
		}
	],
	"buffers":[
		{
			"byteLength":9048,
			"uri":"Sahne1Cerceve.bin"
		}
	]
}
